<svg width="20" height="20" viewBox="0 0 20 20" fill="none" xmlns="http://www.w3.org/2000/svg">
<mask id="mask0_182_879" style="mask-type:luminance" maskUnits="userSpaceOnUse" x="0" y="0" width="20" height="20">
<path d="M10 1C14.97 1 19 5.03 19 10C19 14.97 14.97 19 10 19C5.03 19 1 14.97 1 10C1 5.03 5.03 1 10 1Z" fill="white" stroke="white" stroke-width="1.66667" stroke-linecap="round" stroke-linejoin="round"/>
<path d="M8.2 8.2L15 5L11.8 11.8L5 15L8.2 8.2Z" fill="#191D1F"/>
<path d="M10 11C10.5523 11 11 10.5523 11 10C11 9.44772 10.5523 9 10 9C9.44772 9 9 9.44772 9 10C9 10.5523 9.44772 11 10 11Z" fill="white"/>
</mask>
<g mask="url(#mask0_182_879)">
<path d="M22 -2H-2V22H22V-2Z" fill="#CCD2D8"/>
</g>
</svg>
